<svg width="24" height="24" viewBox="0 0 24 24" fill="none" xmlns="http://www.w3.org/2000/svg">
<g id="bathroom-robe 1">
<g id="Group">
<path id="Vector" d="M8 1.5L12.441 7.718C12.8048 8.22637 13.0003 8.83588 13 9.461V22.5" stroke="#1A202C" stroke-linecap="round" stroke-linejoin="round"/>
<path id="Vector_2" d="M15.8824 1.5L11.9814 7.073" stroke="#1A202C" stroke-linecap="round" stroke-linejoin="round"/>
<path id="Vector_3" d="M16.7662 1.5C17.6817 1.49982 18.5695 1.81367 19.2814 2.38913C19.9934 2.9646 20.4864 3.76686 20.6782 4.662L22.8702 14.9C22.8859 14.9728 22.885 15.0483 22.8678 15.1207C22.8505 15.1932 22.8173 15.2609 22.7705 15.3189C22.7238 15.3769 22.6646 15.4237 22.5974 15.4559C22.5303 15.4881 22.4567 15.5049 22.3822 15.505H19.8082C19.5796 15.5048 19.3579 15.4263 19.1802 15.2826C19.0024 15.1388 18.8792 14.9385 18.8312 14.715L17.0002 6.167V14L17.8692 21.383C17.8857 21.5233 17.8724 21.6655 17.8299 21.8003C17.7875 21.935 17.717 22.0592 17.6231 22.1648C17.5292 22.2703 17.414 22.3548 17.2851 22.4125C17.1562 22.4703 17.0165 22.5001 16.8752 22.5H7.12522C6.98395 22.5001 6.84426 22.4703 6.71534 22.4125C6.58643 22.3548 6.47122 22.2703 6.37731 22.1648C6.2834 22.0592 6.21291 21.935 6.17049 21.8003C6.12808 21.6655 6.11469 21.5233 6.13122 21.383L7.00022 14V6.167L5.16922 14.71C5.12121 14.9335 4.99806 15.1338 4.82028 15.2776C4.64251 15.4213 4.42084 15.4998 4.19222 15.5H1.61822C1.54424 15.4997 1.47124 15.483 1.40449 15.4511C1.33774 15.4192 1.2789 15.3729 1.23222 15.3155C1.18554 15.2581 1.15217 15.1911 1.13453 15.1192C1.1169 15.0474 1.11542 14.9725 1.13022 14.9L3.32222 4.662C3.51401 3.76686 4.00703 2.9646 4.719 2.38913C5.43096 1.81367 6.31877 1.49982 7.23422 1.5H16.7662Z" stroke="#1A202C" stroke-linecap="round" stroke-linejoin="round"/>
<path id="Vector_4" d="M7 13.5H17" stroke="#1A202C" stroke-linecap="round" stroke-linejoin="round"/>
</g>
</g>
</svg>
