<svg width="24" height="24" viewBox="0 0 24 24" fill="none" xmlns="http://www.w3.org/2000/svg">
<path d="M2.5 20.5H18.5V22.5C18.5 22.7652 18.3946 23.0196 18.2071 23.2071C18.0196 23.3946 17.7652 23.5 17.5 23.5H3.5C3.23478 23.5 2.98043 23.3946 2.79289 23.2071C2.60536 23.0196 2.5 22.7652 2.5 22.5V20.5Z" stroke="#1A202C" stroke-linecap="round" stroke-linejoin="round"/>
<path d="M16.6943 7.63406C17.3134 7.26524 18.012 7.05049 18.7314 7.00787C19.4507 6.96526 20.1698 7.09604 20.8281 7.38919C21.4864 7.68234 22.0647 8.12931 22.5143 8.69248C22.9639 9.25565 23.2716 9.91856 23.4117 10.6254C23.5517 11.3323 23.52 12.0625 23.3191 12.7545C23.1182 13.4466 22.754 14.0803 22.2572 14.6023C21.7604 15.1243 21.1455 15.5194 20.4643 15.7542C19.783 15.9891 19.0553 16.057 18.3423 15.9521" stroke="#1A202C" stroke-linecap="round" stroke-linejoin="round"/>
<path d="M2.5 20.5C2.47282 17.5709 2.73307 14.6463 3.277 11.768C3.35253 11.3973 3.32162 11.0127 3.18784 10.6588C3.05406 10.3049 2.82288 9.99607 2.521 9.768L0.7 8.4C0.616047 8.33703 0.554033 8.24925 0.522743 8.14908C0.491453 8.04892 0.492473 7.94144 0.525658 7.84189C0.558844 7.74233 0.622512 7.65574 0.707645 7.59438C0.792778 7.53302 0.895059 7.5 1 7.5H16.64C17.97 10.78 18.5 15.39 18.5 20.5H2.5Z" stroke="#1A202C" stroke-linecap="round" stroke-linejoin="round"/>
<path d="M11.4998 2.584V1.5C11.4998 1.23478 11.3944 0.98043 11.2069 0.792893C11.0194 0.605357 10.765 0.5 10.4998 0.5C10.2346 0.5 9.98023 0.605357 9.7927 0.792893C9.60516 0.98043 9.4998 1.23478 9.4998 1.5V2.6C7.3328 3.02 5.6908 4.813 4.5498 7.5H16.6398C15.5388 4.777 13.8758 2.975 11.4998 2.584V2.584Z" stroke="#1A202C" stroke-linecap="round" stroke-linejoin="round"/>
<path d="M10.5 18.5C11.6046 18.5 12.5 16.4853 12.5 14C12.5 11.5147 11.6046 9.5 10.5 9.5C9.39543 9.5 8.5 11.5147 8.5 14C8.5 16.4853 9.39543 18.5 10.5 18.5Z" stroke="#1A202C" stroke-linecap="round" stroke-linejoin="round"/>
</svg>
