<svg width="24" height="24" viewBox="0 0 24 24" fill="none" xmlns="http://www.w3.org/2000/svg">
<path d="M1.44434 9.79894C1.8807 7.68984 4.35343 6.08984 5.73525 6.08984C7.11706 6.08984 9.58979 7.68984 10.0262 9.79894" stroke="#1A202C" stroke-miterlimit="10" stroke-linecap="round" stroke-linejoin="round"/>
<path d="M5.73543 17C3.69907 17 1.95361 15.4 1.73543 13.3636L1.00816 5.36364C0.862702 3.03636 2.68088 1 5.00816 1H6.4627C8.78997 1 10.6082 3.03636 10.4627 5.36364L9.73543 13.3636C9.51725 15.4 7.77179 17 5.73543 17Z" stroke="#1A202C" stroke-miterlimit="10" stroke-linecap="round" stroke-linejoin="round"/>
<path d="M5.73535 3.91016V6.09197" stroke="#1A202C" stroke-miterlimit="10" stroke-linecap="round" stroke-linejoin="round"/>
<path d="M13.4443 15.7989C13.8807 13.6898 16.3534 12.0898 17.7352 12.0898C19.1171 12.0898 21.5898 13.6898 22.0262 15.7989" stroke="#1A202C" stroke-miterlimit="10" stroke-linecap="round" stroke-linejoin="round"/>
<path d="M17.7354 23C15.6991 23 13.9536 21.4 13.7354 19.3636L13.0082 11.3636C12.8627 9.03636 14.6809 7 17.0082 7H18.4627C20.79 7 22.6082 9.03636 22.4627 11.3636L21.7354 19.3636C21.5172 21.4 19.7718 23 17.7354 23Z" stroke="#1A202C" stroke-miterlimit="10" stroke-linecap="round" stroke-linejoin="round"/>
<path d="M17.7354 9.91016V12.092" stroke="#1A202C" stroke-miterlimit="10" stroke-linecap="round" stroke-linejoin="round"/>
</svg>
