<svg width="24" height="24" viewBox="0 0 24 24" fill="none" xmlns="http://www.w3.org/2000/svg">
<g id="bathroom-hanger-1 2">
<g id="Group">
<path id="Vector" d="M17.5 4H21.5" stroke="#1A202C" stroke-linecap="round" stroke-linejoin="round"/>
<path id="Vector_2" d="M1.5 5C2.05228 5 2.5 4.55228 2.5 4C2.5 3.44772 2.05228 3 1.5 3C0.947715 3 0.5 3.44772 0.5 4C0.5 4.55228 0.947715 5 1.5 5Z" stroke="#1A202C" stroke-linecap="round" stroke-linejoin="round"/>
<path id="Vector_3" d="M15.5 3.5C15.5 2.83696 15.7634 2.20107 16.2322 1.73223C16.7011 1.26339 17.337 1 18 1H6C5.33696 1 4.70107 1.26339 4.23223 1.73223C3.76339 2.20107 3.5 2.83696 3.5 3.5V22.5C3.5 22.6326 3.55268 22.7598 3.64645 22.8536C3.74021 22.9473 3.86739 23 4 23H15C15.1326 23 15.2598 22.9473 15.3536 22.8536C15.4473 22.7598 15.5 22.6326 15.5 22.5V3.5Z" stroke="#1A202C" stroke-linecap="round" stroke-linejoin="round"/>
<path id="Vector_4" d="M18 1C18.3903 0.999916 18.7752 1.09122 19.1239 1.26661C19.4726 1.44199 19.7754 1.69659 20.008 2.01" stroke="#1A202C" stroke-linecap="round" stroke-linejoin="round"/>
<path id="Vector_5" d="M22.5 5C23.0523 5 23.5 4.55228 23.5 4C23.5 3.44772 23.0523 3 22.5 3C21.9477 3 21.5 3.44772 21.5 4C21.5 4.55228 21.9477 5 22.5 5Z" stroke="#1A202C" stroke-linecap="round" stroke-linejoin="round"/>
<path id="Vector_6" d="M20.5 6V14.5C20.5 14.6326 20.4473 14.7598 20.3536 14.8536C20.2598 14.9473 20.1326 15 20 15H17.5" stroke="#1A202C" stroke-linecap="round" stroke-linejoin="round"/>
<path id="Vector_7" d="M3.5 17H15.5V20H3.5V17Z" stroke="#1A202C" stroke-linecap="round" stroke-linejoin="round"/>
</g>
</g>
</svg>
