<svg width="72" height="72" viewBox="0 0 72 72" fill="none" xmlns="http://www.w3.org/2000/svg">
<path d="M53.6616 69H18.3384C13.181 69 9 64.5973 9 59.1663V14.8337C9 9.4027 13.181 5 18.3384 5H53.6616C58.819 5 63 9.4027 63 14.8337V59.1663C63 64.5973 58.819 69 53.6616 69Z" fill="#EDF2F7"/>
<path d="M23 69H18.4888C13.2471 69 9 64.598 9 59.1651V14.833C9 9.40203 13.2471 5 18.4888 5H23C17.7601 5 13.513 9.40203 13.513 14.833V59.1651C13.513 64.598 17.7601 69 23 69Z" fill="#E2E8F0"/>
<path d="M8.97005 36.0163C13.9241 36.0163 17.9401 32.0002 17.9401 27.0462C17.9401 22.0922 13.9241 18.0762 8.97005 18.0762C4.01603 18.0762 0 22.0922 0 27.0462C0 32.0002 4.01603 36.0163 8.97005 36.0163Z" fill="#FF66B0"/>
<path d="M11.302 35.7101C10.5584 35.9104 9.77738 36.0171 8.97047 36.0171C4.01625 36.0171 0 32.001 0 27.0466C0 22.0924 4.01611 18.0762 8.97047 18.0762C9.77738 18.0762 10.5585 18.1828 11.302 18.3832C7.47759 19.4077 4.66172 22.8979 4.66172 27.0466C4.66172 31.1953 7.47759 34.6855 11.302 35.7101Z" fill="#FF1284"/>
<path d="M9.24741 32.8326C8.65622 32.8326 8.17712 32.3534 8.17712 31.7623V23.4922H7.25096C6.65977 23.4922 6.18066 23.0129 6.18066 22.4219C6.18066 21.8307 6.65991 21.3516 7.25096 21.3516H9.24741C9.8386 21.3516 10.3177 21.8308 10.3177 22.4219V31.7625C10.3177 32.3534 9.83846 32.8326 9.24741 32.8326Z" fill="white"/>
<path d="M26.6702 53.6471C31.6243 53.6471 35.6403 49.6311 35.6403 44.6771C35.6403 39.7231 31.6243 35.707 26.6702 35.707C21.7162 35.707 17.7002 39.7231 17.7002 44.6771C17.7002 49.6311 21.7162 53.6471 26.6702 53.6471Z" fill="#00B6F3"/>
<path d="M29.0022 53.341C28.2586 53.5412 27.4776 53.648 26.6707 53.648C21.7164 53.648 17.7002 49.6317 17.7002 44.6775C17.7002 39.7233 21.7163 35.707 26.6707 35.707C27.4776 35.707 28.2587 35.8136 29.0022 36.014C25.1778 37.0386 22.3619 40.5288 22.3619 44.6775C22.3621 48.8262 25.1778 52.3164 29.0022 53.341Z" fill="#009CF3"/>
<path d="M26.2326 50.5112C24.4174 50.5112 24.2803 50.4655 24.1376 50.4178C23.7849 50.3002 23.5211 50.0329 23.4139 49.6846C23.2317 49.0918 23.4998 48.7407 24.0874 47.9713C24.5617 47.3503 25.4444 46.1944 26.9238 44.0807C27.3489 43.4732 27.6233 42.9325 27.7396 42.4726L27.7684 42.2472C27.7377 41.5463 27.1582 40.9856 26.4499 40.9856C25.8206 40.9856 25.2759 41.4326 25.155 42.0485C25.041 42.6286 24.4783 43.006 23.8984 42.8924C23.3183 42.7785 22.9404 42.2158 23.0545 41.6358C23.3722 40.0186 24.8002 38.8449 26.45 38.8449C28.5612 38.8226 30.2769 40.8266 29.8368 42.9084C29.6657 43.6467 29.2757 44.454 28.6779 45.3082C27.7086 46.6932 26.9902 47.6752 26.4722 48.368C27.2963 48.3664 28.288 48.3586 29.2227 48.3468C29.815 48.3382 30.2991 48.8126 30.3065 49.4036C30.314 49.9947 29.8408 50.48 29.2497 50.4874C27.917 50.5041 26.9454 50.5112 26.2326 50.5112Z" fill="white"/>
<path d="M44.3695 71.277C49.3235 71.277 53.3395 67.261 53.3395 62.307C53.3395 57.3529 49.3235 53.3369 44.3695 53.3369C39.4154 53.3369 35.3994 57.3529 35.3994 62.307C35.3994 67.261 39.4154 71.277 44.3695 71.277Z" fill="#48BB78"/>
<path d="M46.7024 70.9709C45.9588 71.1711 45.1778 71.2779 44.3709 71.2779C39.4166 71.2779 35.4004 67.2616 35.4004 62.3074C35.4004 57.3532 39.4165 53.3369 44.3709 53.3369C45.1778 53.3369 45.9589 53.4435 46.7024 53.6439C42.878 54.6685 40.0621 58.1587 40.0621 62.3074C40.0621 66.4561 42.8778 69.9463 46.7024 70.9709Z" fill="#2FA560"/>
<path d="M44.4234 68.2942C42.7066 68.2942 41.2333 67.0134 40.9962 65.315C40.9741 65.1564 40.9629 64.9946 40.9629 64.8337C40.9629 64.2425 41.4421 63.7632 42.0332 63.7632C42.6244 63.7632 43.1036 64.2425 43.1036 64.8337C43.1036 64.8958 43.108 64.9583 43.1164 65.0192C43.2066 65.6658 43.7685 66.1533 44.4232 66.1533C45.1508 66.1533 45.743 65.5613 45.743 64.8335C45.743 64.1059 45.151 63.5138 44.4232 63.5138C43.8321 63.5138 43.3528 63.0345 43.3528 62.4435C43.3528 61.8523 43.8321 61.373 44.4232 61.373C45.1508 61.373 45.743 60.781 45.743 60.0533C45.743 59.3257 45.151 58.7335 44.4232 58.7335C43.7938 58.7335 43.2493 59.1804 43.1284 59.7962C43.0145 60.3763 42.4518 60.754 41.8717 60.6402C41.2917 60.5263 40.9138 59.9637 41.0277 59.3836C41.3452 57.7664 42.7733 56.5928 44.4232 56.5928C46.3313 56.5928 47.8838 58.1451 47.8838 60.0533C47.8838 60.9794 47.518 61.8216 46.9236 62.4433C47.518 63.065 47.8838 63.9072 47.8838 64.8334C47.8839 66.742 46.3315 68.2942 44.4234 68.2942Z" fill="white"/>
<path d="M40.7415 25.4121H24.1055C23.5143 25.4121 23.0352 24.9328 23.0352 24.3418C23.0352 23.7506 23.5144 23.2715 24.1055 23.2715H40.7415C41.3327 23.2715 41.8118 23.7507 41.8118 24.3418C41.812 24.9328 41.3327 25.4121 40.7415 25.4121Z" fill="#FF66B0"/>
<path d="M35.2056 30.8222H24.1045C23.5133 30.8222 23.0342 30.343 23.0342 29.7519C23.0342 29.1607 23.5134 28.6816 24.1045 28.6816H35.2056C35.7967 28.6816 36.2759 29.1609 36.2759 29.7519C36.276 30.3431 35.7967 30.8222 35.2056 30.8222Z" fill="#FF66B0"/>
<path d="M52.2371 43.0421H38.8849C38.2937 43.0421 37.8145 42.5628 37.8145 41.9717C37.8145 41.3805 38.2937 40.9014 38.8849 40.9014H52.2371C52.8283 40.9014 53.3075 41.3806 53.3075 41.9717C53.3075 42.5627 52.8283 43.0421 52.2371 43.0421Z" fill="#00B6F3"/>
<path d="M46.7021 48.4523H38.8849C38.2937 48.4523 37.8145 47.973 37.8145 47.3818C37.8145 46.7906 38.2937 46.3115 38.8849 46.3115H46.7021C47.2933 46.3115 47.7725 46.7908 47.7725 47.3818C47.7725 47.9729 47.2933 48.4523 46.7021 48.4523Z" fill="#00B6F3"/>
<path d="M70.9291 60.672H58.4025C57.8113 60.672 57.332 60.1927 57.332 59.6015C57.332 59.0104 57.8113 58.5312 58.4025 58.5312H70.9291C71.5202 58.5312 71.9995 59.0105 71.9995 59.6015C71.9995 60.1929 71.5202 60.672 70.9291 60.672Z" fill="#48BB78"/>
<path d="M65.3941 66.0831H58.4025C57.8113 66.0831 57.332 65.6039 57.332 65.0127C57.332 64.4215 57.8113 63.9424 58.4025 63.9424H65.3941C65.9853 63.9424 66.4644 64.4216 66.4644 65.0127C66.4645 65.6039 65.9853 66.0831 65.3941 66.0831Z" fill="#48BB78"/>
</svg>
