<svg width="28" height="28" viewBox="0 0 28 28" fill="none" xmlns="http://www.w3.org/2000/svg">
<g clip-path="url(#clip0)">
<path d="M9.11121 24.5794C9.15947 24.5865 9.20874 24.5814 9.25448 24.5644C9.30022 24.5474 9.34095 24.5192 9.37292 24.4824C9.40488 24.4455 9.42705 24.4012 9.43739 24.3535C9.44772 24.3059 9.44588 24.2564 9.43204 24.2096C9.11237 23.1065 8.99071 21.9555 9.07271 20.8099C9.07793 20.7367 9.05538 20.6642 9.00953 20.6069C8.96369 20.5496 8.89793 20.5117 8.82537 20.5008C6.40119 20.2497 4.08008 19.3888 2.07854 17.9983C2.03576 17.9634 1.98396 17.9413 1.92916 17.9347C1.87436 17.9281 1.81881 17.9372 1.76896 17.9609C1.71911 17.9846 1.67701 18.0219 1.64755 18.0686C1.61809 18.1153 1.60248 18.1694 1.60254 18.2246V20.1998C1.60254 22.2414 4.75137 23.9693 9.11121 24.5794Z" fill="#00B6F3"/>
<path d="M1.60292 15.0048C1.60292 17.0313 4.70159 18.751 9.01125 19.374C9.08252 19.3836 9.15481 19.3665 9.21425 19.326C9.27368 19.2855 9.31606 19.2245 9.33325 19.1547C9.61741 18.0098 10.1059 16.9257 10.7753 15.9545C10.8043 15.9123 10.8217 15.8633 10.8258 15.8122C10.8298 15.7612 10.8204 15.71 10.7984 15.6638C10.7764 15.6175 10.7427 15.5779 10.7005 15.5489C10.6583 15.5198 10.6093 15.5024 10.5583 15.4983C7.18542 15.2358 3.94325 14.32 2.07659 12.8022C2.03367 12.7677 1.98193 12.7461 1.9273 12.7398C1.87266 12.7334 1.81734 12.7425 1.76766 12.7662C1.71799 12.7898 1.67597 12.8269 1.64642 12.8733C1.61687 12.9197 1.60099 12.9735 1.60059 13.0285L1.60292 15.0048Z" fill="#00B6F3"/>
<path d="M23.5405 9.80834V7.83434C23.5409 7.77915 23.5255 7.72501 23.4962 7.67825C23.4669 7.63149 23.4249 7.59404 23.375 7.57029C23.3252 7.54655 23.2697 7.53748 23.2149 7.54416C23.1601 7.55084 23.1084 7.57299 23.0657 7.60801C20.8269 9.42567 16.6152 10.3835 12.5727 10.3835C8.53021 10.3835 4.31621 9.42567 2.07854 7.60567C2.03576 7.57079 1.98396 7.54876 1.92916 7.54214C1.87436 7.53553 1.81881 7.5446 1.76896 7.5683C1.71911 7.592 1.67701 7.62937 1.64755 7.67605C1.61809 7.72273 1.60248 7.77681 1.60254 7.83201V9.80834C1.60254 12.2723 6.18754 14.279 11.9567 14.4143C12.0332 14.4158 12.1073 14.3873 12.1632 14.335C13.4319 13.1338 14.9993 12.2947 16.7023 11.9048C18.4053 11.515 20.1817 11.5887 21.8465 12.1183C21.8907 12.1322 21.9375 12.1354 21.9831 12.1277C22.0287 12.12 22.0719 12.1016 22.109 12.074C22.5087 11.8352 22.8466 11.5057 23.0953 11.1121C23.344 10.7185 23.4965 10.2718 23.5405 9.80834Z" fill="#00B6F3"/>
<path d="M12.5725 9.23083C18.6305 9.23083 23.5415 7.16291 23.5415 4.612C23.5415 2.06109 18.6305 -0.00683594 12.5725 -0.00683594C6.5145 -0.00683594 1.60352 2.06109 1.60352 4.612C1.60352 7.16291 6.5145 9.23083 12.5725 9.23083Z" fill="#00B6F3"/>
<path d="M13.4809 25.7696C13.5083 25.7419 13.541 25.72 13.5771 25.7052C13.6132 25.6904 13.6519 25.6829 13.6909 25.6833C13.73 25.684 13.7687 25.6925 13.8045 25.7084C13.8404 25.7242 13.8727 25.747 13.8997 25.7755C14.7306 26.6639 15.7776 27.3217 16.9385 27.685C18.0995 28.0482 19.3347 28.1043 20.5238 27.8479C21.7129 27.5915 22.8152 27.0313 23.7233 26.2219C24.6314 25.4126 25.3142 24.3817 25.7052 23.2298C25.7585 23.084 25.7821 22.929 25.7747 22.7739C25.7673 22.6188 25.7291 22.4668 25.6622 22.3267C25.5953 22.1866 25.5011 22.0613 25.3851 21.958C25.2692 21.8548 25.1338 21.7758 24.9869 21.7255C24.84 21.6753 24.6845 21.6549 24.5296 21.6655C24.3748 21.6761 24.2235 21.7175 24.0849 21.7873C23.9462 21.8571 23.8228 21.9539 23.722 22.072C23.6212 22.19 23.545 22.3271 23.4979 22.475C23.2335 23.2536 22.7701 23.9494 22.1535 24.4934C21.5369 25.0373 20.7886 25.4104 19.9832 25.5756C19.1777 25.7407 18.343 25.6922 17.5621 25.4348C16.7812 25.1774 16.0812 24.72 15.5319 24.1083C15.4815 24.0531 15.4543 23.9805 15.4561 23.9058C15.4578 23.831 15.4883 23.7598 15.5412 23.707L17.5245 21.7236C17.6026 21.6418 17.6551 21.5391 17.6759 21.428C17.6966 21.3169 17.6846 21.2022 17.6414 21.0977C17.5981 20.9933 17.5255 20.9037 17.4322 20.8398C17.339 20.7759 17.2292 20.7405 17.1162 20.7378H11.9642C11.8095 20.7378 11.6611 20.7993 11.5517 20.9086C11.4423 21.018 11.3809 21.1664 11.3809 21.3211V26.4673C11.3835 26.5803 11.419 26.6901 11.4829 26.7833C11.5468 26.8766 11.6364 26.9492 11.7408 26.9925C11.8452 27.0357 11.96 27.0477 12.0711 27.027C12.1822 27.0062 12.2849 26.9537 12.3667 26.8756L13.4809 25.7696Z" fill="#007FF3"/>
<path d="M24.2375 15.1749C24.2104 15.2026 24.178 15.2246 24.1422 15.2396C24.1064 15.2546 24.068 15.2624 24.0293 15.2624C23.9905 15.2624 23.9521 15.2546 23.9163 15.2396C23.8806 15.2246 23.8482 15.2026 23.821 15.1749C22.9857 14.2946 21.9373 13.6448 20.7773 13.2883C19.6173 12.9317 18.3849 12.8806 17.1993 13.1397C16.0138 13.3989 14.9151 13.9596 14.0097 14.7676C13.1042 15.5756 12.4226 16.6035 12.0307 17.7521C11.981 17.8971 11.9604 18.0505 11.9701 18.2034C11.9797 18.3564 12.0194 18.506 12.0868 18.6436C12.1543 18.7813 12.2481 18.9043 12.3631 19.0056C12.4781 19.107 12.6119 19.1847 12.7569 19.2343C13.0498 19.3346 13.3705 19.3144 13.6485 19.1782C13.9264 19.042 14.1389 18.8009 14.2392 18.5081C14.5023 17.7327 14.963 17.0393 15.5758 16.4961C16.1885 15.953 16.9322 15.5789 17.7336 15.4108C18.535 15.2426 19.3663 15.2862 20.1457 15.5372C20.9251 15.7881 21.6257 16.2379 22.1783 16.8421C22.2296 16.8973 22.2574 16.9703 22.2559 17.0456C22.2543 17.1209 22.2236 17.1927 22.1702 17.2457L20.265 19.1462C20.187 19.228 20.1344 19.3307 20.1137 19.4418C20.0929 19.553 20.1049 19.6677 20.1481 19.7721C20.1914 19.8766 20.2641 19.9662 20.3573 20.0301C20.4505 20.094 20.5603 20.1294 20.6733 20.1321H25.8195C25.9742 20.1321 26.1226 20.0706 26.232 19.9612C26.3414 19.8518 26.4028 19.7035 26.4028 19.5487V14.4084C26.404 14.293 26.3706 14.1799 26.3069 14.0836C26.2431 13.9874 26.152 13.9125 26.0453 13.8685C25.9385 13.8246 25.8211 13.8136 25.708 13.8371C25.595 13.8605 25.4916 13.9173 25.4112 14.0001L25.3342 14.0771L24.2375 15.1749Z" fill="#007FF3"/>
</g>
<defs>
<clipPath id="clip0">
<rect width="28" height="28" fill="white"/>
</clipPath>
</defs>
</svg>
