<svg width="72" height="72" viewBox="0 0 72 72" fill="none" xmlns="http://www.w3.org/2000/svg">
<path d="M0 8.71721V18.1699H72V8.71721C72 6.07698 69.8595 3.93652 67.2193 3.93652H4.78069C2.14045 3.93652 0 6.07698 0 8.71721H0Z" fill="#00B6F3"/>
<path d="M67.2193 3.93652H62.7344C65.3746 3.93652 67.515 6.07684 67.515 8.71721V18.1699H72V8.71721C72 6.07698 69.8595 3.93652 67.2193 3.93652Z" fill="#009CF3"/>
<path d="M0 63.2838V18.1699H72V63.2838C72 65.9241 69.8595 68.0645 67.2193 68.0645H4.78069C2.14045 68.0645 0 65.9241 0 63.2838H0Z" fill="#EDF2F7"/>
<path d="M67.515 18.1699V63.2838C67.515 65.9242 65.3746 68.0645 62.7344 68.0645H67.2193C69.8595 68.0645 72 65.9242 72 63.2838V18.1699H67.515Z" fill="#E2E8F0"/>
<path d="M41.0211 24.3115H8.01188C7.05873 24.3115 6.28613 25.0841 6.28613 26.0373V37.7726H42.7468V26.0373C42.7468 25.0841 41.9742 24.3115 41.0211 24.3115Z" fill="#FF66B0"/>
<path d="M41.2509 24.3115H38.7324C39.6856 24.3115 40.4582 25.0841 40.4582 26.0373V37.7726H42.9766V26.0373C42.9766 25.0841 42.204 24.3115 41.2509 24.3115Z" fill="#FF1284"/>
<path d="M6.28613 49.1205V36.8024C6.28613 35.2412 7.55176 33.9756 9.11298 33.9756H40.1489C41.7101 33.9756 42.9758 35.2412 42.9758 36.8024V49.1205H6.28613Z" fill="#00B6F3"/>
<path d="M22.8153 33.9756H11.7705V31.5325C11.7705 30.8803 12.2993 30.3516 12.9515 30.3516H21.6345C22.2867 30.3516 22.8155 30.8803 22.8155 31.5325V33.9756H22.8153Z" fill="white"/>
<path d="M37.4923 33.9756H26.4473V31.5325C26.4473 30.8803 26.976 30.3516 27.6282 30.3516H36.3113C36.9635 30.3516 37.4923 30.8803 37.4923 31.5325V33.9756Z" fill="white"/>
<path d="M40.1493 33.9756H37.6309C39.1921 33.9756 40.4577 35.2412 40.4577 36.8024V49.1205H42.9762V36.8024C42.9762 35.2412 41.7105 33.9756 40.1493 33.9756Z" fill="#009CF3"/>
<path d="M21.6352 30.3516H19.3457C19.9979 30.3516 20.5267 30.8803 20.5267 31.5325V33.9758H22.8162V31.5325C22.8163 30.8803 22.2874 30.3516 21.6352 30.3516Z" fill="#EDF2F7"/>
<path d="M36.311 30.3516H34.0215C34.6737 30.3516 35.2024 30.8803 35.2024 31.5325V33.9758H37.492V31.5325C37.492 30.8803 36.9632 30.3516 36.311 30.3516Z" fill="#EDF2F7"/>
<path d="M42.9766 40.3613V50.8466H6.28694V40.3613H42.9766Z" fill="#FF66B0"/>
<path d="M43.6963 56.569H41.798C41.3691 56.569 41.0215 56.2212 41.0215 55.7924V38.549C41.0215 38.1201 41.3691 37.7725 41.798 37.7725H43.6963C44.1252 37.7725 44.4728 38.1202 44.4728 38.549V55.7923C44.4728 56.2212 44.1252 56.569 43.6963 56.569Z" fill="#FF66B0"/>
<path d="M7.00686 56.569H5.10856C4.67966 56.569 4.33203 56.2212 4.33203 55.7924V38.549C4.33203 38.1201 4.67966 37.7725 5.10856 37.7725H7.00686C7.43577 37.7725 7.78339 38.1202 7.78339 38.549V55.7923C7.78353 56.2212 7.43577 56.569 7.00686 56.569Z" fill="#FF66B0"/>
<path d="M43.9254 37.7725H42.0938C42.5227 37.7725 42.8703 38.1201 42.8703 38.549V55.7923C42.8703 56.2212 42.5227 56.5688 42.0938 56.5688H43.9254C44.3543 56.5688 44.7019 56.2211 44.7019 55.7923V38.549C44.7019 38.1201 44.3543 37.7725 43.9254 37.7725Z" fill="#FF1284"/>
<path d="M7.2358 37.7725H5.4043C5.8332 37.7725 6.18083 38.1201 6.18083 38.549V55.7923C6.18083 56.2212 5.8332 56.5688 5.4043 56.5688H7.2358C7.6647 56.5688 8.01233 56.2211 8.01233 55.7923V38.549C8.01247 38.1201 7.6647 37.7725 7.2358 37.7725Z" fill="#FF1284"/>
<path d="M67.6685 34.5274H51.2017C50.6015 34.5274 50.1152 34.041 50.1152 33.441C50.1152 32.8409 50.6017 32.3545 51.2017 32.3545H67.6685C68.2687 32.3545 68.7549 32.8409 68.7549 33.441C68.7549 34.041 68.2687 34.5274 67.6685 34.5274Z" fill="#00B6F3"/>
<path d="M67.6685 39.6935H51.2017C50.6015 39.6935 50.1152 39.207 50.1152 38.607C50.1152 38.0069 50.6017 37.5205 51.2017 37.5205H67.6685C68.2687 37.5205 68.7549 38.0069 68.7549 38.607C68.7551 39.207 68.2687 39.6935 67.6685 39.6935Z" fill="#00B6F3"/>
<path d="M67.6685 44.8595H51.2017C50.6015 44.8595 50.1152 44.373 50.1152 43.773C50.1152 43.1729 50.6017 42.6865 51.2017 42.6865H67.6685C68.2687 42.6865 68.7549 43.1729 68.7549 43.773C68.7549 44.373 68.2687 44.8595 67.6685 44.8595Z" fill="#00B6F3"/>
<path d="M67.0895 56.5693H51.7817C51.4616 56.5693 51.2021 56.3098 51.2021 55.9898V51.4262C51.2021 51.1061 51.4616 50.8467 51.7817 50.8467H67.0895C67.4096 50.8467 67.6691 51.1061 67.6691 51.4262V55.9898C67.6691 56.3098 67.4096 56.5693 67.0895 56.5693Z" fill="#48BB78"/>
<path d="M66.2203 28.4181H52.6509C51.8507 28.4181 51.2021 27.7695 51.2021 26.9693V25.7602C51.2021 24.9601 51.8507 24.3115 52.6509 24.3115H66.2203C67.0205 24.3115 67.6691 24.9601 67.6691 25.7602V26.9693C67.6691 27.7695 67.0205 28.4181 66.2203 28.4181Z" fill="#00B6F3"/>
<path d="M48.0451 13.353H44.4233C44.1032 13.353 43.8438 13.0935 43.8438 12.7734V9.15178C43.8438 8.83172 44.1032 8.57227 44.4233 8.57227H48.0451C48.3651 8.57227 48.6246 8.83172 48.6246 9.15178V12.7734C48.6244 13.0935 48.3651 13.353 48.0451 13.353Z" fill="white"/>
<path d="M57.4904 13.353H53.8686C53.5485 13.353 53.2891 13.0935 53.2891 12.7734V9.15178C53.2891 8.83172 53.5485 8.57227 53.8686 8.57227H57.4904C57.8104 8.57227 58.0699 8.83172 58.0699 9.15178V12.7734C58.0699 13.0935 57.8104 13.353 57.4904 13.353Z" fill="white"/>
<path d="M66.9347 13.353H63.3129C62.9929 13.353 62.7334 13.0935 62.7334 12.7734V9.15178C62.7334 8.83172 62.9929 8.57227 63.3129 8.57227H66.9347C67.2548 8.57227 67.5142 8.83172 67.5142 9.15178V12.7734C67.5142 13.0935 67.2548 13.353 66.9347 13.353Z" fill="white"/>
</svg>
