<svg width="72" height="72" viewBox="0 0 72 72" fill="none" xmlns="http://www.w3.org/2000/svg">
<path d="M46.7367 53.2892L31.9252 70.3143C29.971 72.5612 26.4825 72.5612 24.5282 70.3143L9.71547 53.2892C8.08998 51.4219 9.41706 48.5085 11.8943 48.5085H18.5134V17.3619C18.5134 15.4771 20.0431 13.9473 21.9279 13.9473H34.5199C36.4061 13.9473 37.9344 15.4771 37.9344 17.3619V48.5087H44.5578C47.0351 48.5087 48.362 51.4219 46.7367 53.2892Z" fill="#00B6F3"/>
<path d="M21.5965 48.5087H18.5137V17.3619C18.5137 15.4771 20.0435 13.9473 21.9282 13.9473H25.011C23.1262 13.9473 21.5965 15.4771 21.5965 17.3619V48.5087Z" fill="#009CF3"/>
<path d="M29.7682 71.7515C27.9645 72.3469 25.8799 71.869 24.5282 70.3145L9.71547 53.2895C8.08998 51.4221 9.41706 48.5088 11.8943 48.5088H14.9771C12.4998 48.5088 11.1729 51.4221 12.7982 53.2895L27.611 70.3144C28.2138 71.0069 28.9628 71.4865 29.7682 71.7515Z" fill="#009CF3"/>
<path d="M30.5436 46.0234C29.2209 45.5559 27.7549 44.9886 26.9113 44.327C26.5541 44.0469 26.3976 43.4714 26.5126 42.8611C26.6239 42.2705 27.0262 41.5542 27.8216 41.3145C28.1285 41.2221 28.4157 41.175 28.6816 41.1598C28.6899 41.1596 28.6982 41.159 28.7065 41.1586C29.8644 41.1016 30.61 41.6592 30.7733 41.7952C31.2347 42.1788 31.9195 42.1162 32.3034 41.655C32.6872 41.1937 32.6246 40.5088 32.1634 40.1248C31.936 39.9357 31.0644 39.2769 29.7415 39.0555V38.19C29.7415 37.5899 29.2551 37.1035 28.655 37.1035C28.0549 37.1035 27.5686 37.5899 27.5686 38.19V39.1353C27.4457 39.1641 27.3215 39.1959 27.1949 39.234C25.7497 39.6694 24.67 40.905 24.3772 42.4587C24.1098 43.8787 24.5668 45.2498 25.5704 46.0369C26.4498 46.7265 27.6809 47.3163 29.8196 48.0721C31.5644 48.6889 31.4574 50.18 31.3832 50.6222C31.1963 51.733 30.2631 52.9328 28.6555 52.9475C28.6553 52.9475 28.6552 52.9475 28.655 52.9475C28.6522 52.9475 28.6494 52.9479 28.6466 52.9479C27.1993 52.9576 26.7106 52.8788 25.5749 52.1359C25.0729 51.8073 24.3996 51.9482 24.071 52.4503C23.7425 52.9525 23.8832 53.626 24.3854 53.9545C25.628 54.7674 26.4872 55.0245 27.5686 55.0962V56.0657C27.5686 56.6657 28.055 57.1521 28.655 57.1521C29.2552 57.1521 29.7415 56.6657 29.7415 56.0657V55.0051C31.9476 54.5344 33.2373 52.699 33.5259 50.9825C33.9025 48.7435 32.7319 46.7968 30.5436 46.0234Z" fill="white"/>
<path d="M37.9353 17.3628V36.8649C34.9843 36.2145 31.4003 36.1203 30.1081 33.8865C28.4492 31.0195 31.9522 26.4952 31.9522 22.9446C31.9522 20.1197 29.7357 16.6804 29.6633 13.9482H34.5207C36.407 13.9481 37.9353 15.478 37.9353 17.3628Z" fill="#009CF3"/>
<path d="M69.628 22.9448C69.628 19.3942 73.1316 14.87 71.4726 12.0029C69.7612 9.04504 64.0334 9.83985 61.0755 8.12859C58.2084 6.46977 56.0749 1.06738 52.5242 1.06738C48.9736 1.06738 46.84 6.46963 43.973 8.12859C41.0151 9.83999 35.2873 9.04504 33.5759 12.0031C31.917 14.8701 35.4204 19.3943 35.4204 22.945C35.4204 26.4956 31.9169 31.0198 33.5759 33.8869C35.2873 36.8448 41.0151 36.05 43.973 37.7612C46.84 39.42 48.9736 44.8224 52.5242 44.8224C56.0749 44.8224 58.2084 39.4202 61.0755 37.7612C64.0334 36.0498 69.7612 36.8448 71.4726 33.8867C73.1314 31.0198 69.628 26.4955 69.628 22.9448Z" fill="#FF66B0"/>
<path d="M54.0689 44.4731C53.5815 44.6957 53.0695 44.8231 52.5227 44.8231C48.9732 44.8231 46.8384 39.4209 43.9716 37.7618C41.0137 36.0508 35.286 36.8448 33.5749 33.887C31.916 31.0202 35.4191 26.4959 35.4191 22.945C35.4191 19.3955 31.916 14.8713 33.5749 12.0031C35.286 9.04531 41.0137 9.84083 43.9716 8.1297C46.8384 6.47061 48.9732 1.06836 52.5227 1.06836C53.0695 1.06836 53.5815 1.19563 54.0689 1.41838C51.3901 2.64055 49.4882 6.72528 47.0625 8.1297C44.1046 9.84083 38.377 9.04531 36.6659 12.0031C35.0069 14.8713 38.51 19.3956 38.51 22.945C38.51 26.4959 35.0069 31.0202 36.6659 33.887C38.377 36.8448 44.1046 36.0508 47.0625 37.7618C49.4882 39.1662 51.3903 43.2508 54.0689 44.4731Z" fill="#FF1284"/>
<path d="M55.6933 24.0732L49.1206 21.1022C49.111 21.0979 49.1012 21.0936 49.0915 21.0896C48.6245 20.8949 48.0919 21.0003 47.7347 21.3583C47.3774 21.7163 47.2728 22.249 47.4684 22.7156C47.4719 22.7238 47.4753 22.7319 47.4789 22.7401L50.4332 29.3289C50.614 29.7321 51.0103 29.9712 51.4252 29.9712C51.5738 29.9712 51.7248 29.9405 51.8691 29.8758C52.4166 29.6303 52.6615 28.9873 52.416 28.4399L51.9867 27.4822L53.846 25.6229L54.7983 26.0533C55.3451 26.3007 55.9887 26.0574 56.2358 25.5108C56.4829 24.9641 56.24 24.3204 55.6933 24.0732ZM51.0352 25.3603L50.4685 24.0963L51.7295 24.6662L51.0352 25.3603Z" fill="white"/>
<path d="M58.488 20.276C58.1775 20.59 57.8501 20.92 57.5695 21.2019L53.4985 17.1308C53.0741 16.7064 52.3863 16.7064 51.9618 17.1308C51.5375 17.5551 51.5375 18.243 51.9618 18.6674L56.7973 23.5031C57.0077 23.7133 57.2858 23.8213 57.5659 23.8213C57.784 23.8213 58.0036 23.7558 58.1927 23.6222C58.2895 23.5539 58.3336 23.5226 60.0331 21.8041C60.4549 21.3774 60.4511 20.6895 60.0245 20.2674C59.598 19.8457 58.91 19.8492 58.488 20.276Z" fill="white"/>
<path d="M64.3793 15.9294C63.9549 15.5051 63.2671 15.5051 62.8426 15.9294L61.5903 17.1818L60.729 16.3204L61.8323 15.2171C62.2567 14.7928 62.2567 14.1049 61.8325 13.6805C61.4081 13.2562 60.7201 13.2561 60.2959 13.6805L59.1924 14.7838L58.3312 13.9226L59.5836 12.6702C60.0079 12.246 60.0079 11.558 59.5836 11.1336C59.1592 10.7094 58.4714 10.7094 58.0468 11.1336L56.0262 13.1543C55.6019 13.5785 55.6019 14.2665 56.0262 14.6909L58.4236 17.0883C58.4237 17.0884 58.4239 17.0885 58.424 17.0887C58.4241 17.0888 58.4243 17.089 58.4244 17.0891L60.8219 19.4866C61.0258 19.6904 61.302 19.8049 61.5903 19.8049C61.8786 19.8049 62.1548 19.6904 62.3587 19.4866L64.3793 17.466C64.8036 17.0417 64.8036 16.3536 64.3793 15.9294Z" fill="white"/>
<path d="M45.5469 28.5565C44.773 28.9134 44.018 29.2152 43.7431 29.3232C43.6475 29.3246 43.5832 29.2679 43.545 29.2166C43.4464 29.0851 43.4521 28.8937 43.5607 28.6918C43.9754 27.9198 44.9814 27.7929 45.0207 27.7883C45.6137 27.7319 46.0515 27.2076 46 26.6129C45.9484 26.0151 45.4209 25.5726 44.8238 25.6242C44.0127 25.6944 42.4308 26.203 41.6464 27.6637C41.1365 28.6131 41.1976 29.7074 41.8057 30.5194C42.3796 31.2858 43.3152 31.6401 44.2471 31.4434C44.3031 31.4316 44.3583 31.4154 44.4118 31.3949C44.4526 31.3793 45.4227 31.0068 46.457 30.5299C46.8391 30.3537 47.3044 30.2473 47.4643 30.4766C47.602 30.6742 47.6117 31.1605 47.1953 31.5769C46.7596 32.0125 46.1678 32.2564 45.613 32.2291C45.0115 32.199 44.5039 32.6615 44.4743 33.2608C44.445 33.8602 44.9068 34.37 45.5063 34.3995C45.5711 34.4027 45.636 34.4043 45.7007 34.4043C46.81 34.4043 47.905 33.9402 48.7319 33.1133C49.831 32.0142 50.0476 30.3827 49.247 29.2339C48.639 28.362 47.3482 27.7264 45.5469 28.5565Z" fill="white"/>
<path d="M8.69463 21.4469L8.78702 21.0977C9.11299 19.8661 8.42969 18.5925 7.22341 18.183L3.51274 16.9234C2.18355 16.4723 0.750298 17.241 0.391142 18.5979L0.161501 19.4656C-0.197655 20.8225 0.66747 22.1998 2.04574 22.4653L5.89366 23.2064C7.14466 23.4473 8.36866 22.6785 8.69463 21.4469Z" fill="#48BB78"/>
<path d="M13.3079 13.539L13.5626 13.2827C14.4606 12.3792 14.5058 10.9344 13.6658 9.97665L11.0821 7.03056C10.1567 5.97531 8.53103 5.92454 7.54145 6.92003L6.90864 7.55664C5.9192 8.55212 5.97981 10.1775 7.04069 11.0966L10.0025 13.6624C10.9655 14.4965 12.4099 14.4425 13.3079 13.539Z" fill="#48BB78"/>
<path d="M21.0864 8.70075L21.435 8.60625C22.6647 8.27283 23.426 7.04419 23.1775 5.79473L22.4131 1.95131C22.1393 0.574592 20.7568 -0.282095 19.4022 0.0852174L18.5359 0.320202C17.1813 0.687655 16.4211 2.1254 16.8803 3.45178L18.1624 7.15472C18.5791 8.35861 19.8569 9.03417 21.0864 8.70075Z" fill="#48BB78"/>
<path d="M63.3034 50.5516L63.211 50.9008C62.8851 52.1324 63.5683 53.406 64.7746 53.8155L68.4853 55.0751C69.8145 55.5262 71.2478 54.7574 71.6069 53.4006L71.8366 52.5329C72.1957 51.176 71.3306 49.7987 69.9523 49.5332L66.1044 48.7921C64.8534 48.5512 63.6294 49.32 63.3034 50.5516Z" fill="#48BB78"/>
<path d="M58.6907 58.4601L58.436 58.7163C57.538 59.6198 57.4928 61.0646 58.3328 62.0224L60.9165 64.9686C61.8419 66.0239 63.4675 66.0746 64.4571 65.0791L65.0899 64.4425C66.0794 63.447 66.0188 61.8217 64.9579 60.9026L61.996 58.3367C61.0332 57.5027 59.5888 57.5565 58.6907 58.4601Z" fill="#48BB78"/>
<path d="M50.9114 63.2988L50.5628 63.3933C49.3332 63.7267 48.5719 64.9554 48.8204 66.2048L49.5848 70.0483C49.8586 71.425 51.2411 72.2817 52.5957 71.9144L53.462 71.6794C54.8166 71.3119 55.5768 69.8742 55.1175 68.5478L53.8355 64.8448C53.4188 63.6409 52.1409 62.9654 50.9114 63.2988Z" fill="#48BB78"/>
</svg>
