<svg width="52" height="52" viewBox="0 0 52 52" fill="none" xmlns="http://www.w3.org/2000/svg">
<path d="M10.2916 25.4584C8.12492 26.3612 3.57492 28.275 2.70825 28.7084L3.79159 32.5L4.87492 33.5834L7.04159 34.6667H11.9166L17.8749 33.0417L31.4166 28.7084L35.7499 27.0834L50.9166 21.125L50.3749 19.5L47.6666 17.875L44.9583 17.3334L42.2499 14.625L36.8333 14.0834L26.5416 19.5L12.4583 26.5417L10.2916 25.4584Z" fill="#FFDFEE"/>
<path d="M51.804 20.7593C51.8028 20.7549 51.8016 20.7509 51.8004 20.747C51.7996 20.745 51.7992 20.743 51.7984 20.741C50.8574 17.9199 48.9503 17.0562 47.5161 16.8285C46.6021 16.6837 45.7701 16.7805 45.2445 16.8836C44.8612 16.3758 44.1574 15.5292 43.2152 14.756C41.2165 13.1155 39.1122 12.5982 37.1294 13.2599C35.1449 13.9216 30.1981 16.421 25.072 19.074L16.8661 14.3521C16.6729 14.2406 16.4412 14.2176 16.2293 14.2882L9.52896 16.5234C9.28735 16.6043 9.10049 16.7975 9.02789 17.0415C8.95489 17.2855 9.00567 17.5493 9.16357 17.7493L14.5242 24.5278C13.3193 25.132 12.4398 25.5509 12.0867 25.6688C11.9962 25.6989 11.1357 25.8921 8.84539 23.4011C7.54293 21.984 6.48129 20.451 6.47058 20.4359C6.2734 20.1499 5.91 20.0285 5.58032 20.1384L0.533927 21.8221C0.157432 21.9479 -0.0651331 22.3359 0.0169898 22.7247C0.050315 22.8829 0.854087 26.6475 2.46362 30.466C2.63104 30.8635 3.08886 31.05 3.48678 30.8826C3.8847 30.7152 4.07116 30.2569 3.90334 29.8594C3.78115 29.5694 3.66372 29.279 3.55105 28.9902L10.0828 26.5801C11.0437 27.2002 11.8708 27.3878 12.5814 27.151C13.5105 26.8407 16.7117 25.1836 21.8577 22.5049C27.8229 19.3997 35.2473 15.5347 37.6241 14.7421C38.7084 14.3803 39.7438 14.554 40.6611 14.9714L38.7211 16.1259C38.4053 16.3135 38.2632 16.696 38.3795 17.0443C38.6786 17.9405 39.3086 18.6665 40.1536 19.0886C40.6519 19.3378 41.1899 19.4635 41.731 19.4635C42.1075 19.4635 42.486 19.4024 42.8538 19.2799L45.1604 18.5102H45.1611C45.1711 18.5066 46.1815 18.1849 47.3213 18.3801C48.5528 18.5907 49.4676 19.3279 50.0508 20.5704C48.7638 21.1211 45.7892 22.3799 41.977 23.9061C41.5763 24.0664 41.3815 24.521 41.5418 24.9217C41.6644 25.2268 41.9576 25.4129 42.2674 25.4129C42.3642 25.4129 42.4622 25.3946 42.5574 25.3566C46.1673 23.9117 49.0308 22.7044 50.4309 22.1073C50.4063 22.4783 50.2897 22.8568 50.0794 23.2499C48.4211 26.3496 41.2811 29.8654 30.3909 32.971L31.9064 29.4325C34.2793 28.5708 36.7926 27.6235 39.3848 26.611C39.7867 26.4543 39.9854 26.0012 39.8287 25.5993C39.6716 25.1975 39.2185 24.9987 38.8167 25.1558C36.7323 25.9691 34.7002 26.7411 32.7511 27.4596L33.5707 25.5458C33.7405 25.1495 33.5568 24.69 33.1601 24.5202C32.7638 24.3504 32.304 24.5341 32.1342 24.9309L26.7902 37.4096L19.7626 39.7542L19.9641 31.7102C19.9748 31.2785 19.634 30.9203 19.2028 30.9096C19.196 30.9092 19.1893 30.9092 19.183 30.9092C18.7604 30.9092 18.4129 31.2464 18.4022 31.6709L18.3887 32.2077C14.9034 33.1757 12.0518 33.7724 9.90902 33.9806C8.87793 34.0806 6.45709 34.2226 5.74337 33.4502C5.53112 33.1174 5.32046 32.7611 5.11099 32.3802C4.9031 32.0022 4.42822 31.8641 4.05013 32.072C3.67205 32.2799 3.53399 32.7547 3.74188 33.1328C5.691 36.68 7.88967 38.4724 10.2863 38.4724C10.4791 38.4724 10.6735 38.4609 10.8687 38.4379C12.3612 38.4177 15.0169 38.0626 18.2574 37.4528L18.0812 44.4781C18.0749 44.7328 18.1931 44.9744 18.3978 45.1255C18.5339 45.2267 18.697 45.2787 18.8624 45.2787C18.9453 45.2787 19.0286 45.2656 19.1096 45.2386L25.8091 43.0034C26.0206 42.9328 26.192 42.7749 26.28 42.5698L29.6011 34.815C34.8204 33.3764 39.4403 31.7732 42.9795 30.1709C47.505 28.1221 50.3575 26.0417 51.4568 23.987C52.0361 22.9052 52.1523 21.8193 51.804 20.7593ZM3.0111 27.5239C2.35729 25.6414 1.91891 23.9692 1.70269 23.0793L5.52795 21.8031C5.95919 22.3918 6.75463 23.434 7.68457 24.4469C8.02178 24.8146 8.3471 25.1447 8.66052 25.4395L3.0111 27.5239ZM16.3908 15.8815L18.5601 17.1296L12.3136 19.2136L11.0794 17.6533L16.3908 15.8815ZM21.136 21.1187C19.2778 22.0859 17.4655 23.0297 15.9456 23.8069L13.3443 20.5173L20.3723 18.1726L23.424 19.9285C22.6559 20.3276 21.8898 20.7263 21.136 21.1187ZM42.3591 17.7977C41.8588 17.9647 41.3236 17.9266 40.8519 17.691C40.5678 17.5493 40.3274 17.3458 40.1445 17.0971L42.1472 15.9057C42.7617 16.3988 43.2695 16.9403 43.6337 17.3728L42.3591 17.7977ZM10.8096 36.876C10.7787 36.8764 10.7477 36.8783 10.7172 36.8823C9.6091 37.0243 8.51968 36.5915 7.45764 35.5929C7.72027 35.6124 8.00473 35.6227 8.31259 35.6227C10.3772 35.6227 13.5129 35.1589 18.3478 33.8402L18.2975 35.8552C15.0034 36.484 12.2331 36.8633 10.8096 36.876ZM24.9819 41.6323L19.6713 43.4041L19.7213 41.4153L25.9674 39.3313L24.9819 41.6323Z" fill="#473C41"/>
<path d="M16.1535 44.5781L11.7962 46.0317C11.3868 46.1682 11.1658 46.6109 11.3023 47.0199C11.4114 47.3472 11.7161 47.5543 12.0434 47.5543C12.1251 47.5543 12.2084 47.5412 12.2906 47.5139L16.6478 46.0602C17.0573 45.9238 17.2782 45.481 17.1418 45.072C17.0053 44.6626 16.5625 44.4416 16.1535 44.5781Z" fill="#473C41"/>
<path d="M13.7923 42.6098C13.6558 42.2004 13.213 41.9794 12.804 42.1159L5.3475 44.6038C4.93808 44.7403 4.7171 45.183 4.85358 45.592C4.96268 45.9193 5.26736 46.1264 5.59466 46.1264C5.67639 46.1264 5.7597 46.1133 5.84183 46.086L13.2987 43.5981C13.7078 43.4616 13.9287 43.0193 13.7923 42.6098Z" fill="#473C41"/>
<path d="M24.4532 15.7526C24.5348 15.7438 24.6162 15.7219 24.695 15.6863L31.8428 12.4156C32.2353 12.2357 32.4077 11.7723 32.2282 11.3798C32.0488 10.9877 31.5849 10.8149 31.1929 10.9947L24.0446 14.2651C23.6526 14.4449 23.4798 14.9084 23.6596 15.3009C23.8031 15.6146 24.1281 15.7876 24.4532 15.7526Z" fill="#473C41"/>
<path d="M40.5997 39.4202C38.747 39.4202 37.0799 40.4255 36.2107 42.0243C34.2036 42.0632 32.583 43.7076 32.583 45.7234C32.583 45.9226 32.5993 46.1245 32.6318 46.3232C32.6929 46.7017 33.0198 46.9798 33.403 46.9798H44.4281C44.732 46.9798 45.0086 46.8033 45.1367 46.5276C45.445 45.8638 45.6009 45.1553 45.6009 44.4213C45.6009 41.6637 43.3574 39.4202 40.5997 39.4202ZM43.8922 45.4171H34.1675C34.3163 44.3832 35.2086 43.5858 36.2829 43.5858C36.3809 43.5858 36.4785 43.593 36.5816 43.6076C36.9359 43.6572 37.2795 43.4597 37.4144 43.128C37.9436 41.8247 39.1941 40.9829 40.5997 40.9829C42.4961 40.9829 44.0386 42.5254 44.0386 44.4213C44.0386 44.7629 43.9894 45.0962 43.8922 45.4171Z" fill="#473C41"/>
<path d="M5.03131 12.0284H16.0564C16.3607 12.0284 16.6372 11.8519 16.765 11.5761C17.0732 10.9124 17.2295 10.2039 17.2295 9.46991C17.2295 6.71225 14.986 4.46875 12.2284 4.46875C10.3756 4.46875 8.70859 5.47406 7.83896 7.07248C5.83231 7.11136 4.21167 8.7558 4.21167 10.772C4.21167 10.9715 4.22794 11.1735 4.26007 11.3722C4.32156 11.7503 4.64807 12.0284 5.03131 12.0284ZM7.91156 8.6344C8.00955 8.6344 8.10715 8.64154 8.2099 8.65582C8.56537 8.70621 8.90814 8.50824 9.04263 8.17658C9.57227 6.87332 10.8224 6.03107 12.2284 6.03107C14.1243 6.03107 15.6668 7.57395 15.6668 9.46991C15.6668 9.8115 15.618 10.1447 15.5204 10.4657H5.79581C5.94498 9.43143 6.83682 8.6344 7.91156 8.6344Z" fill="#FF1284"/>
</svg>
